# xmcd
#
# Track frame offsets:
#	183
#	13680
#	27023
#	40468
#	53195
#	63023
#	72713
#	85365
#	99463
#	114698
#	127780
#	140415
#
# Disc length: 2015 seconds
#
# Revision: 0
# Processed by: cddbd v1.4PL0 Copyright (c) Steve Scherf et al.
# Submitted via: audiograbber 1.81.03
#
DISCID=a207dd0c
DTITLE=Fausto Cigliano - La Grande Canzone Napoletana
DYEAR=1995
DGENRE=Napoletani
TTITLE0=Fausto Cigliano - Simmo ... 'e Napule, paisà
TTITLE1=Fausto Cigliano - 'O ciucciariello
TTITLE2=Fausto Cigliano - Dove sta Zazà
TTITLE3=Fausto Cigliano - L'aperitivo a Margellina
TTITLE4=Fausto Cigliano - Luna rossa
TTITLE5=Fausto Cigliano - Me so' 'mbriacato 'e sole
TTITLE6=Fausto Cigliano - Tammurriata nera
TTITLE7=Fausto Cigliano - Anema e core
TTITLE8=Fausto Cigliano - 'O vascio
TTITLE9=Fausto Cigliano - Scalinatella
TTITLE10=Fausto Cigliano - Serenatella a 'na cumpagna 'e scola
TTITLE11=Fausto Cigliano - Tutt'e ssere
EXTD=
EXTT0=
EXTT1=
EXTT2=
EXTT3=
EXTT4=
EXTT5=
EXTT6=
EXTT7=
EXTT8=
EXTT9=
EXTT10=
EXTT11=
PLAYORDER=
